# xmcd CD database file
# Copyright (C) 1997 Ti Kan
#
# Track frame offsets:
#  197
#  14900
#  29817
#  41462
#  54375
#  61765
#  71805
#  84705
#  92480
#  102015
#  111830
#  122247
#  133050
#  144617
#  157357
#  176150
#
# Disc length: 2550 seconds
#
# Revision: 1
# Processed by: cddbd v1.4b41PL1 Copyright (c) Steve Scherf et al.
# Submitted via: CDWizzard Release:4.20
#
DISCID=ef09f410
DTITLE=Varius - Country Greats
DYEAR=1900
DGENRE=
TTITLE0=will you remember mine
TTITLE1=and so will you my love
TTITLE2=I can't change overnight
TTITLE3=(she's) just a girl I used to know
TTITLE4=treat me mean, treat me cruel
TTITLE5=where I stand
TTITLE6=I fall to pieces
TTITLE7=your cheatin'heart
TTITLE8=livin' in the sunshine of your love
TTITLE9=we're together again
TTITLE10=daddy sang bass
TTITLE11=what am I living for
TTITLE12=I don't need to know that right now
TTITLE13=georgia in a jug
TTITLE14=lighthouse bar
TTITLE15=airport song
EXTD=
EXTT0=
EXTT1=
EXTT2=
EXTT3=
EXTT4=
EXTT5=
EXTT6=
EXTT7=
EXTT8=
EXTT9=
EXTT10=
EXTT11=
EXTT12=
EXTT13=
EXTT14=
EXTT15=
PLAYORDER=
